<svg width="32" height="32" viewBox="0 0 32 32" fill="none" xmlns="http://www.w3.org/2000/svg">
<g clip-path="url(#clip0_130_6017)">
<path d="M12.2588 9.39186C11.0088 9.45436 9.88378 9.54498 9.32128 9.61998C7.43753 9.88061 5.8294 11.425 5.5969 13.2275C5.5969 13.2275 5.51503 13.8881 5.4844 14.4556L5.39253 16.3037C5.3844 16.7794 5.38503 17.2919 5.39753 17.8456C5.4444 19.8825 5.61815 21.375 5.79878 22.4706C6.11128 24.2831 7.72815 25.8906 9.54878 26.2025C10.6513 26.4019 13.9519 26.64 16.0007 26.6225C18.0494 26.6431 21.35 26.4019 22.4525 26.2025C24.2725 25.89 25.89 24.2806 26.2025 22.4706C26.3832 21.3756 26.5569 19.8831 26.6038 17.8456C26.6163 17.29 26.6169 16.7756 26.6088 16.2987L26.5163 14.4519C26.505 14.0418 26.4676 13.6328 26.4044 13.2275C26.1719 11.425 24.5669 9.87998 22.6825 9.61998C22.12 9.54498 20.995 9.45436 19.745 9.39186L17.7931 9.31686C17.1525 9.30061 16.5375 9.29248 16.0038 9.29248C15.47 9.29248 14.855 9.30061 14.2144 9.31686L12.2588 9.39186Z" fill="url(#paint0_linear_130_6017)"/>
<path d="M19.7413 9.39188C19.7144 8.70438 19.6682 8.10063 19.6163 7.69251C19.5377 7.12267 19.2803 6.59246 18.8813 6.17813C18.4985 5.77092 17.9884 5.50637 17.435 5.42813C16.9579 5.38561 16.479 5.36788 16 5.37501C15.5221 5.36836 15.0442 5.38651 14.5682 5.42938C14.0146 5.50763 13.5043 5.77217 13.1213 6.17938C12.7226 6.59372 12.4653 7.12361 12.3863 7.69313C12.3319 8.10188 12.2857 8.70313 12.2613 9.39313L14.2132 9.31813C14.23 8.71626 14.2619 8.18313 14.3 7.85251C14.3135 7.73765 14.3644 7.63043 14.445 7.54751C14.5242 7.46555 14.6289 7.41308 14.7419 7.39876C14.7419 7.39876 15.2944 7.36751 15.9657 7.36751C16.7007 7.36751 17.2625 7.39876 17.2625 7.39876C17.3759 7.41259 17.481 7.46514 17.56 7.54751C17.6406 7.63043 17.6916 7.73765 17.705 7.85251C17.7432 8.18313 17.775 8.71626 17.7919 9.31813L19.7413 9.39188Z" fill="url(#paint1_linear_130_6017)"/>
<path d="M15.29 17.1638C15.6069 17.2214 15.9315 17.2224 16.2488 17.1669L26.5625 15.375L26.5163 14.45C26.505 14.0399 26.4677 13.631 26.4044 13.2256C26.1719 11.4231 24.5669 9.87815 22.6825 9.61815C22.12 9.54315 20.995 9.45253 19.745 9.39003L17.7932 9.31502C17.1525 9.29877 16.5375 9.29065 16.0038 9.29065C15.47 9.29065 14.855 9.29877 14.2144 9.31502L12.2625 9.39003C11.0125 9.45253 9.88755 9.54315 9.32505 9.61815C7.43755 9.88065 5.82942 11.425 5.59692 13.2275C5.59692 13.2275 5.51505 13.8881 5.48442 14.4556L5.43817 15.3931L15.29 17.1638Z" fill="url(#paint2_linear_130_6017)"/>
</g>
<defs>
<linearGradient id="paint0_linear_130_6017" x1="24.0269" y1="25.7631" x2="7.97315" y2="9.70935" gradientUnits="userSpaceOnUse">
<stop stop-color="#1EB4EB"/>
<stop offset="0.54" stop-color="#1EB4EB"/>
<stop offset="1" stop-color="#92F4FE"/>
</linearGradient>
<linearGradient id="paint1_linear_130_6017" x1="18.4588" y1="10.6744" x2="13.5413" y2="5.75751" gradientUnits="userSpaceOnUse">
<stop stop-color="#34344F"/>
<stop offset="0.54" stop-color="#353551"/>
<stop offset="1" stop-color="#666684"/>
</linearGradient>
<linearGradient id="paint2_linear_130_6017" x1="26.9932" y1="24.8107" x2="14.8657" y2="12.6832" gradientUnits="userSpaceOnUse">
<stop stop-color="#5FD9F9"/>
<stop offset="0.52" stop-color="#5BD7F8"/>
<stop offset="1" stop-color="#B0F0FF"/>
</linearGradient>
<clipPath id="clip0_130_6017">
<rect width="32" height="32" fill="white"/>
</clipPath>
</defs>
</svg>
