<svg width="227" height="101" viewBox="0 0 227 101" fill="none" xmlns="http://www.w3.org/2000/svg">
<path d="M128.461 15.4999C115.696 17.7463 105.681 6.73228 99.5752 0C109.204 23.7195 130.575 23.4847 139.029 15.4999C147.484 7.5151 159.321 6.29057 165.332 8.45449C171.204 10.5681 181.181 20.1455 189.522 18.7878C199.62 17.1438 205.569 9.08075 209.014 2.58332C191.4 19.4923 182.006 12.9166 170.499 7.04541C158.991 1.17423 156.647 2.45144 147.954 4.22724C139.338 5.98713 136.456 14.093 128.461 15.4999Z" fill="url(#paint0_linear_32_2452)"/>
<path d="M45.3255 31.9391C29.5437 45.2784 8.53277 40.4718 0 36.4012C19.7271 47.4389 40.8634 42.5072 57.0678 29.3558C73.2722 16.2043 91.2419 14.7953 108.264 30.7648C125.287 46.7344 150.067 31.2345 150.067 31.2345C150.067 31.2345 169.325 20.1967 188.347 36.1663C203.565 48.942 219.738 41.4895 225.923 36.1663C202.203 45.3253 196.567 37.8102 180.597 27.0073C164.628 16.2043 148.467 25.5689 142.787 29.3558C137.855 32.6436 122.355 38.2799 103.098 21.8407C83.8404 5.40138 65.0526 15.2649 45.3255 31.9391Z" fill="url(#paint1_linear_32_2452)"/>
<path d="M145.135 19.4923C147.562 15.3433 154.341 9.29992 162.044 18.318C158.756 16.1261 150.771 13.2923 145.135 19.4923Z" fill="#93C5FD"/>
<path d="M165.098 34.7574C159.837 35.5089 155.391 40.8635 153.825 43.4468C163.783 32.362 175.666 39.2978 180.363 44.1513C177.075 36.8711 171.674 33.818 165.098 34.7574Z" fill="#FDE047"/>
<path d="M63.1738 38.7497C67.6359 27.2422 91.8252 20.1968 96.2872 43.4467C86.8934 32.6437 75.8556 30.0604 63.1738 38.7497Z" fill="#F59E0B"/>
<path d="M47.7881 79H44.0537V68.6875H33.5225V79H29.7725V56.1562H33.5225V65.5H44.0537V56.1562H47.7881V79ZM60.2568 56.1562C62.2256 56.1562 63.8506 56.3958 65.1318 56.875C66.4235 57.3542 67.3818 58.0833 68.0068 59.0625C68.6423 60.0417 68.96 61.2865 68.96 62.7969C68.96 63.9219 68.7516 64.8802 68.335 65.6719C67.9183 66.4635 67.3714 67.1198 66.6943 67.6406C66.0173 68.1615 65.2933 68.5781 64.5225 68.8906L71.0068 79H66.7725L61.2568 69.8438H57.585V79H53.835V56.1562H60.2568ZM60.0068 59.2812H57.585V66.75H60.1787C61.9183 66.75 63.1787 66.4271 63.96 65.7812C64.7516 65.1354 65.1475 64.1823 65.1475 62.9219C65.1475 61.599 64.7256 60.6615 63.8818 60.1094C63.0485 59.5573 61.7568 59.2812 60.0068 59.2812Z" fill="#1D4ED8"/>
<path d="M99.2324 72.7812C99.2324 74.1354 98.8991 75.3021 98.2324 76.2812C97.5762 77.2604 96.6283 78.0104 95.3887 78.5312C94.1595 79.0521 92.6908 79.3125 90.9824 79.3125C90.1491 79.3125 89.3522 79.2656 88.5918 79.1719C87.8314 79.0781 87.1126 78.9427 86.4355 78.7656C85.7689 78.5781 85.1595 78.3542 84.6074 78.0938V74.5625C85.5345 74.9688 86.571 75.3385 87.7168 75.6719C88.8626 75.9948 90.0293 76.1562 91.2168 76.1562C92.1855 76.1562 92.9876 76.0312 93.623 75.7812C94.2689 75.5208 94.748 75.1562 95.0605 74.6875C95.373 74.2083 95.5293 73.651 95.5293 73.0156C95.5293 72.3385 95.347 71.7656 94.9824 71.2969C94.6178 70.8281 94.0658 70.401 93.3262 70.0156C92.597 69.6198 91.6803 69.1979 90.5762 68.75C89.8262 68.4479 89.1074 68.1042 88.4199 67.7188C87.7428 67.3333 87.1387 66.8802 86.6074 66.3594C86.0762 65.8385 85.6543 65.224 85.3418 64.5156C85.0397 63.7969 84.8887 62.9531 84.8887 61.9844C84.8887 60.6927 85.196 59.5885 85.8105 58.6719C86.4355 57.7552 87.3105 57.0521 88.4355 56.5625C89.571 56.0729 90.8939 55.8281 92.4043 55.8281C93.6022 55.8281 94.7272 55.9531 95.7793 56.2031C96.8418 56.4531 97.8835 56.8073 98.9043 57.2656L97.7168 60.2812C96.7793 59.8958 95.8678 59.5885 94.9824 59.3594C94.1074 59.1302 93.2116 59.0156 92.2949 59.0156C91.5033 59.0156 90.8314 59.1354 90.2793 59.375C89.7272 59.6146 89.3053 59.9531 89.0137 60.3906C88.7324 60.8177 88.5918 61.3281 88.5918 61.9219C88.5918 62.5885 88.7533 63.151 89.0762 63.6094C89.4095 64.0573 89.9199 64.4688 90.6074 64.8438C91.3053 65.2188 92.2012 65.6354 93.2949 66.0938C94.5553 66.6146 95.623 67.1615 96.498 67.7344C97.3835 68.3073 98.0605 68.9948 98.5293 69.7969C98.998 70.5885 99.2324 71.5833 99.2324 72.7812ZM111.561 79H107.795V59.3438H101.107V56.1562H118.232V59.3438H111.561V79ZM128.154 56.1562C130.123 56.1562 131.748 56.3958 133.029 56.875C134.321 57.3542 135.279 58.0833 135.904 59.0625C136.54 60.0417 136.857 61.2865 136.857 62.7969C136.857 63.9219 136.649 64.8802 136.232 65.6719C135.816 66.4635 135.269 67.1198 134.592 67.6406C133.915 68.1615 133.191 68.5781 132.42 68.8906L138.904 79H134.67L129.154 69.8438H125.482V79H121.732V56.1562H128.154ZM127.904 59.2812H125.482V66.75H128.076C129.816 66.75 131.076 66.4271 131.857 65.7812C132.649 65.1354 133.045 64.1823 133.045 62.9219C133.045 61.599 132.623 60.6615 131.779 60.1094C130.946 59.5573 129.654 59.2812 127.904 59.2812ZM155.107 79H142.17V56.1562H155.107V59.3125H145.92V65.5156H154.529V68.6562H145.92V75.8281H155.107V79ZM174.201 79L171.967 72.6562H163.232L160.998 79H157.045L165.545 56.0625H169.701L178.186 79H174.201ZM170.998 69.4375L168.826 63.1875C168.743 62.9167 168.623 62.5365 168.467 62.0469C168.311 61.5469 168.154 61.0417 167.998 60.5312C167.842 60.0104 167.712 59.5729 167.607 59.2188C167.503 59.6458 167.373 60.125 167.217 60.6562C167.071 61.1771 166.925 61.6667 166.779 62.125C166.644 62.5833 166.54 62.9375 166.467 63.1875L164.279 69.4375H170.998ZM191.061 79L184.482 59.9219H184.342C184.373 60.349 184.41 60.9323 184.451 61.6719C184.493 62.4115 184.529 63.2031 184.561 64.0469C184.592 64.8906 184.607 65.6979 184.607 66.4688V79H181.201V56.1562H186.467L192.795 74.3906H192.889L199.436 56.1562H204.686V79H201.107V66.2812C201.107 65.5833 201.118 64.8281 201.139 64.0156C201.17 63.2031 201.201 62.4323 201.232 61.7031C201.274 60.974 201.305 60.3906 201.326 59.9531H201.201L194.373 79H191.061ZM223.889 72.7812C223.889 74.1354 223.555 75.3021 222.889 76.2812C222.232 77.2604 221.285 78.0104 220.045 78.5312C218.816 79.0521 217.347 79.3125 215.639 79.3125C214.805 79.3125 214.008 79.2656 213.248 79.1719C212.488 79.0781 211.769 78.9427 211.092 78.7656C210.425 78.5781 209.816 78.3542 209.264 78.0938V74.5625C210.191 74.9688 211.227 75.3385 212.373 75.6719C213.519 75.9948 214.686 76.1562 215.873 76.1562C216.842 76.1562 217.644 76.0312 218.279 75.7812C218.925 75.5208 219.404 75.1562 219.717 74.6875C220.029 74.2083 220.186 73.651 220.186 73.0156C220.186 72.3385 220.003 71.7656 219.639 71.2969C219.274 70.8281 218.722 70.401 217.982 70.0156C217.253 69.6198 216.337 69.1979 215.232 68.75C214.482 68.4479 213.764 68.1042 213.076 67.7188C212.399 67.3333 211.795 66.8802 211.264 66.3594C210.732 65.8385 210.311 65.224 209.998 64.5156C209.696 63.7969 209.545 62.9531 209.545 61.9844C209.545 60.6927 209.852 59.5885 210.467 58.6719C211.092 57.7552 211.967 57.0521 213.092 56.5625C214.227 56.0729 215.55 55.8281 217.061 55.8281C218.258 55.8281 219.383 55.9531 220.436 56.2031C221.498 56.4531 222.54 56.8073 223.561 57.2656L222.373 60.2812C221.436 59.8958 220.524 59.5885 219.639 59.3594C218.764 59.1302 217.868 59.0156 216.951 59.0156C216.16 59.0156 215.488 59.1354 214.936 59.375C214.383 59.6146 213.962 59.9531 213.67 60.3906C213.389 60.8177 213.248 61.3281 213.248 61.9219C213.248 62.5885 213.41 63.151 213.732 63.6094C214.066 64.0573 214.576 64.4688 215.264 64.8438C215.962 65.2188 216.857 65.6354 217.951 66.0938C219.212 66.6146 220.279 67.1615 221.154 67.7344C222.04 68.3073 222.717 68.9948 223.186 69.7969C223.654 70.5885 223.889 71.5833 223.889 72.7812Z" fill="black"/>
<path d="M52.2062 97.1282H51.1008V91.3579H49.1376V90.4222H54.1648V91.3579H52.2062V97.1282ZM59.3479 97.1282L58.692 95.2659H56.128L55.4721 97.1282H54.3116L56.8068 90.3947H58.0269L60.5176 97.1282H59.3479ZM58.4076 94.321L57.7701 92.4863C57.7456 92.4068 57.7104 92.2952 57.6646 92.1514C57.6187 92.0047 57.5728 91.8563 57.527 91.7065C57.4811 91.5536 57.4429 91.4252 57.4123 91.3212C57.3817 91.4466 57.3435 91.5873 57.2976 91.7432C57.2548 91.8961 57.212 92.0398 57.1692 92.1744C57.1294 92.3089 57.0989 92.4129 57.0775 92.4863L56.4353 94.321H58.4076ZM61.4029 97.1282V90.4222H62.5037V96.1925H65.3521V97.1282H61.4029ZM70.3105 97.1282H66.5126V90.4222H70.3105V91.3487H67.6135V93.1697H70.1408V94.0917H67.6135V96.197H70.3105V97.1282ZM77.3559 97.1282H76.0028L72.7186 91.7753H72.6773C72.6896 91.9557 72.7003 92.1468 72.7095 92.3487C72.7217 92.5505 72.7309 92.7584 72.737 92.9725C72.7461 93.1865 72.7538 93.4036 72.7599 93.6238V97.1282H71.76V90.4222H73.1039L76.3835 95.7384H76.4156C76.4095 95.5824 76.4019 95.4035 76.3927 95.2017C76.3835 94.9999 76.3743 94.7919 76.3652 94.5779C76.3591 94.3608 76.3545 94.1513 76.3514 93.9495V90.4222H77.3559V97.1282ZM81.4428 97.1282H80.3374V91.3579H78.3742V90.4222H83.4014V91.3579H81.4428V97.1282ZM91.0248 97.1282L90.3688 95.2659H87.8048L87.1489 97.1282H85.9884L88.4836 90.3947H89.7037L92.1944 97.1282H91.0248ZM90.0845 94.321L89.4469 92.4863C89.4224 92.4068 89.3873 92.2952 89.3414 92.1514C89.2955 92.0047 89.2496 91.8563 89.2038 91.7065C89.1579 91.5536 89.1197 91.4252 89.0891 91.3212C89.0585 91.4466 89.0203 91.5873 88.9744 91.7432C88.9316 91.8961 88.8888 92.0398 88.846 92.1744C88.8063 92.3089 88.7757 92.4129 88.7543 92.4863L88.1121 94.321H90.0845ZM95.9373 91.2616C95.6162 91.2616 95.3288 91.3197 95.075 91.4359C94.8242 91.5521 94.6117 91.7203 94.4374 91.9404C94.2631 92.1576 94.1301 92.4221 94.0383 92.734C93.9466 93.0428 93.9007 93.3914 93.9007 93.7798C93.9007 94.2996 93.9741 94.7476 94.1209 95.1237C94.2677 95.4968 94.4909 95.7842 94.7906 95.986C95.0902 96.1848 95.4694 96.2842 95.9281 96.2842C96.2125 96.2842 96.4892 96.2567 96.7583 96.2016C97.0274 96.1466 97.3057 96.0717 97.5931 95.9769V96.9126C97.321 97.0196 97.0458 97.0976 96.7675 97.1465C96.4892 97.1954 96.1682 97.2199 95.8043 97.2199C95.1193 97.2199 94.5505 97.0777 94.098 96.7933C93.6484 96.5089 93.3121 96.1084 93.0888 95.5916C92.8687 95.0748 92.7586 94.4693 92.7586 93.7752C92.7586 93.2676 92.8289 92.8028 92.9696 92.3808C93.1102 91.9588 93.3151 91.5949 93.5842 91.2891C93.8533 90.9803 94.1851 90.7433 94.5796 90.5781C94.9771 90.41 95.4312 90.3259 95.9419 90.3259C96.2782 90.3259 96.6085 90.3641 96.9326 90.4405C97.2598 90.5139 97.5626 90.6194 97.8408 90.757L97.4555 91.6652C97.2231 91.5551 96.98 91.4604 96.7262 91.3808C96.4724 91.3013 96.2094 91.2616 95.9373 91.2616ZM104.987 93.766C104.987 94.2889 104.92 94.7659 104.785 95.1971C104.651 95.6283 104.449 95.9967 104.18 96.3025C103.911 96.6083 103.571 96.8392 103.162 96.9952L104.758 98.7244H103.29L102.029 97.2153C101.998 97.2153 101.967 97.2153 101.937 97.2153C101.909 97.2184 101.882 97.2199 101.854 97.2199C101.319 97.2199 100.854 97.1373 100.46 96.9722C100.069 96.8071 99.7428 96.5716 99.4829 96.2658C99.2261 95.9601 99.0334 95.5946 98.905 95.1696C98.7765 94.7445 98.7123 94.2736 98.7123 93.7568C98.7123 93.0657 98.8255 92.4633 99.0518 91.9496C99.2811 91.4328 99.6282 91.0322 100.093 90.7479C100.561 90.4604 101.151 90.3167 101.863 90.3167C102.561 90.3167 103.14 90.4589 103.602 90.7433C104.064 91.0277 104.409 91.4282 104.639 91.945C104.871 92.4588 104.987 93.0657 104.987 93.766ZM99.8682 93.766C99.8682 94.2828 99.9385 94.7308 100.079 95.11C100.22 95.4861 100.435 95.7766 100.726 95.9815C101.02 96.1833 101.396 96.2842 101.854 96.2842C102.316 96.2842 102.692 96.1833 102.983 95.9815C103.273 95.7766 103.487 95.4861 103.625 95.11C103.762 94.7308 103.831 94.2828 103.831 93.766C103.831 92.9801 103.674 92.3655 103.359 91.9221C103.047 91.4756 102.548 91.2524 101.863 91.2524C101.405 91.2524 101.027 91.3533 100.731 91.5551C100.437 91.757 100.22 92.0459 100.079 92.4221C99.9385 92.7951 99.8682 93.2431 99.8682 93.766ZM111.693 90.4222V94.7614C111.693 95.2292 111.594 95.6481 111.395 96.0182C111.199 96.3882 110.903 96.6817 110.505 96.8988C110.108 97.1129 109.608 97.2199 109.005 97.2199C108.146 97.2199 107.492 96.9952 107.042 96.5456C106.596 96.0931 106.372 95.4922 106.372 94.743V90.4222H107.473V94.6467C107.473 95.2063 107.605 95.6191 107.868 95.8851C108.131 96.1512 108.524 96.2842 109.047 96.2842C109.407 96.2842 109.701 96.2215 109.927 96.0961C110.157 95.9677 110.325 95.7812 110.432 95.5365C110.542 95.2888 110.597 94.9907 110.597 94.6421V90.4222H111.693ZM113.409 97.1282V90.4222H114.509V97.1282H113.409ZM120.151 95.3026C120.151 95.7001 120.053 96.0426 119.858 96.3301C119.665 96.6175 119.387 96.8377 119.023 96.9906C118.662 97.1435 118.231 97.2199 117.729 97.2199C117.485 97.2199 117.251 97.2062 117.028 97.1786C116.804 97.1511 116.593 97.1114 116.395 97.0594C116.199 97.0043 116.02 96.9386 115.858 96.8621V95.8255C116.13 95.9448 116.434 96.0533 116.771 96.1512C117.107 96.246 117.45 96.2934 117.798 96.2934C118.083 96.2934 118.318 96.2567 118.505 96.1833C118.694 96.1068 118.835 95.9998 118.927 95.8622C119.018 95.7215 119.064 95.5579 119.064 95.3714C119.064 95.1726 119.011 95.0045 118.904 94.8669C118.797 94.7292 118.635 94.6039 118.417 94.4907C118.203 94.3745 117.934 94.2507 117.61 94.1192C117.39 94.0305 117.179 93.9296 116.977 93.8165C116.778 93.7033 116.601 93.5703 116.445 93.4174C116.289 93.2645 116.165 93.0841 116.074 92.8762C115.985 92.6652 115.941 92.4175 115.941 92.1331C115.941 91.7539 116.031 91.4298 116.211 91.1607C116.395 90.8916 116.652 90.6852 116.982 90.5415C117.315 90.3977 117.703 90.3259 118.147 90.3259C118.498 90.3259 118.829 90.3626 119.138 90.436C119.449 90.5093 119.755 90.6133 120.055 90.7479L119.706 91.6331C119.431 91.52 119.164 91.4298 118.904 91.3625C118.647 91.2952 118.384 91.2616 118.115 91.2616C117.882 91.2616 117.685 91.2968 117.523 91.3671C117.361 91.4374 117.237 91.5368 117.151 91.6652C117.069 91.7906 117.028 91.9404 117.028 92.1147C117.028 92.3104 117.075 92.4756 117.17 92.6101C117.268 92.7416 117.418 92.8624 117.619 92.9725C117.824 93.0826 118.087 93.2049 118.408 93.3394C118.778 93.4923 119.092 93.6529 119.349 93.8211C119.609 93.9892 119.807 94.1911 119.945 94.4265C120.082 94.6589 120.151 94.9509 120.151 95.3026ZM121.445 97.1282V90.4222H122.546V97.1282H121.445ZM126.642 97.1282H125.536V91.3579H123.573V90.4222H128.6V91.3579H126.642V97.1282ZM129.628 97.1282V90.4222H130.729V97.1282H129.628ZM138.453 93.766C138.453 94.2828 138.387 94.7537 138.256 95.1788C138.127 95.6008 137.933 95.9646 137.673 96.2704C137.413 96.5732 137.087 96.8071 136.696 96.9722C136.305 97.1373 135.846 97.2199 135.32 97.2199C134.785 97.2199 134.32 97.1373 133.926 96.9722C133.534 96.8071 133.209 96.5716 132.949 96.2658C132.692 95.9601 132.499 95.5946 132.371 95.1696C132.242 94.7445 132.178 94.2736 132.178 93.7568C132.178 93.0657 132.291 92.4633 132.517 91.9496C132.747 91.4328 133.094 91.0322 133.559 90.7479C134.027 90.4604 134.617 90.3167 135.329 90.3167C136.026 90.3167 136.606 90.4589 137.068 90.7433C137.529 91.0277 137.875 91.4282 138.104 91.945C138.337 92.4588 138.453 93.0657 138.453 93.766ZM133.334 93.766C133.334 94.2828 133.404 94.7308 133.545 95.11C133.686 95.4861 133.901 95.7766 134.192 95.9815C134.485 96.1833 134.861 96.2842 135.32 96.2842C135.782 96.2842 136.158 96.1833 136.448 95.9815C136.739 95.7766 136.953 95.4861 137.091 95.11C137.228 94.7308 137.297 94.2828 137.297 93.766C137.297 92.9801 137.139 92.3655 136.825 91.9221C136.513 91.4756 136.014 91.2524 135.329 91.2524C134.871 91.2524 134.493 91.3533 134.196 91.5551C133.903 91.757 133.686 92.0459 133.545 92.4221C133.404 92.7951 133.334 93.2431 133.334 93.766ZM145.489 97.1282H144.136L140.852 91.7753H140.81C140.823 91.9557 140.833 92.1468 140.843 92.3487C140.855 92.5505 140.864 92.7584 140.87 92.9725C140.879 93.1865 140.887 93.4036 140.893 93.6238V97.1282H139.893V90.4222H141.237L144.517 95.7384H144.549C144.543 95.5824 144.535 95.4035 144.526 95.2017C144.517 94.9999 144.507 94.7919 144.498 94.5779C144.492 94.3608 144.488 94.1513 144.485 93.9495V90.4222H145.489V97.1282ZM151.64 90.4222C152.505 90.4222 153.137 90.5996 153.534 90.9543C153.932 91.309 154.131 91.8059 154.131 92.445C154.131 92.7355 154.085 93.0122 153.993 93.2752C153.904 93.5351 153.758 93.766 153.553 93.9678C153.348 94.1666 153.077 94.3241 152.741 94.4403C152.408 94.5565 151.996 94.6146 151.507 94.6146H150.791V97.1282H149.691V90.4222H151.64ZM151.567 91.335H150.791V93.6972H151.392C151.738 93.6972 152.031 93.6575 152.273 93.5779C152.515 93.4954 152.698 93.3654 152.823 93.1881C152.949 93.0107 153.012 92.7768 153.012 92.4863C153.012 92.0979 152.894 91.809 152.658 91.6194C152.426 91.4298 152.062 91.335 151.567 91.335ZM159.626 97.1282L158.97 95.2659H156.406L155.75 97.1282H154.589L157.085 90.3947H158.305L160.795 97.1282H159.626ZM158.685 94.321L158.048 92.4863C158.023 92.4068 157.988 92.2952 157.942 92.1514C157.897 92.0047 157.851 91.8563 157.805 91.7065C157.759 91.5536 157.721 91.4252 157.69 91.3212C157.66 91.4466 157.621 91.5873 157.575 91.7432C157.533 91.8961 157.49 92.0398 157.447 92.1744C157.407 92.3089 157.377 92.4129 157.355 92.4863L156.713 94.321H158.685ZM163.566 90.4222C164.144 90.4222 164.621 90.4925 164.997 90.6332C165.376 90.7739 165.657 90.9879 165.841 91.2753C166.027 91.5628 166.121 91.9282 166.121 92.3716C166.121 92.7019 166.06 92.9832 165.937 93.2156C165.815 93.448 165.654 93.6406 165.456 93.7935C165.257 93.9464 165.044 94.0687 164.818 94.1605L166.722 97.1282H165.479L163.859 94.4403H162.782V97.1282H161.681V90.4222H163.566ZM163.492 91.3396H162.782V93.5321H163.543C164.054 93.5321 164.424 93.4373 164.653 93.2477C164.885 93.0581 165.002 92.7783 165.002 92.4083C165.002 92.0199 164.878 91.7447 164.63 91.5827C164.385 91.4206 164.006 91.3396 163.492 91.3396ZM170.006 97.1282H168.9V91.3579H166.937V90.4222H171.964V91.3579H170.006V97.1282ZM178.588 97.1282H177.235L173.951 91.7753H173.909C173.921 91.9557 173.932 92.1468 173.941 92.3487C173.954 92.5505 173.963 92.7584 173.969 92.9725C173.978 93.1865 173.986 93.4036 173.992 93.6238V97.1282H172.992V90.4222H174.336L177.615 95.7384H177.648C177.641 95.5824 177.634 95.4035 177.625 95.2017C177.615 94.9999 177.606 94.7919 177.597 94.5779C177.591 94.3608 177.586 94.1513 177.583 93.9495V90.4222H178.588V97.1282ZM184.147 97.1282H180.349V90.4222H184.147V91.3487H181.45V93.1697H183.977V94.0917H181.45V96.197H184.147V97.1282ZM187.482 90.4222C188.06 90.4222 188.537 90.4925 188.913 90.6332C189.292 90.7739 189.573 90.9879 189.757 91.2753C189.943 91.5628 190.037 91.9282 190.037 92.3716C190.037 92.7019 189.975 92.9832 189.853 93.2156C189.731 93.448 189.57 93.6406 189.372 93.7935C189.173 93.9464 188.96 94.0687 188.734 94.1605L190.637 97.1282H189.394L187.775 94.4403H186.697V97.1282H185.597V90.4222H187.482ZM187.408 91.3396H186.697V93.5321H187.459C187.969 93.5321 188.339 93.4373 188.569 93.2477C188.801 93.0581 188.917 92.7783 188.917 92.4083C188.917 92.0199 188.794 91.7447 188.546 91.5827C188.301 91.4206 187.922 91.3396 187.408 91.3396Z" fill="black"/>
<defs>
<linearGradient id="paint0_linear_32_2452" x1="175.5" y1="-29" x2="110.231" y2="5.73729" gradientUnits="userSpaceOnUse">
<stop stop-color="#1D4ED8"/>
<stop offset="1" stop-color="#60A5FA"/>
</linearGradient>
<linearGradient id="paint1_linear_32_2452" x1="376.839" y1="34.5735" x2="-106.11" y2="-22.2435" gradientUnits="userSpaceOnUse">
<stop stop-color="#1D4ED8"/>
<stop offset="1" stop-color="#60A5FA"/>
</linearGradient>
</defs>
</svg>
