<svg width="32" height="32" viewBox="0 0 32 32" fill="none" xmlns="http://www.w3.org/2000/svg">
<path d="M15.6667 1C12.7659 1 9.93023 1.86018 7.51831 3.47178C5.10639 5.08337 3.22653 7.37399 2.11644 10.054C1.00635 12.734 0.715906 15.6829 1.28182 18.528C1.84774 21.373 3.2446 23.9864 5.29577 26.0376C7.34694 28.0887 9.96029 29.4856 12.8053 30.0515C15.6504 30.6174 18.5994 30.327 21.2794 29.2169C23.9593 28.1068 26.25 26.227 27.8616 23.815C29.4732 21.4031 30.3333 18.5675 30.3333 15.6667C30.3333 11.7768 28.7881 8.0463 26.0376 5.29577C23.287 2.54523 19.5565 1 15.6667 1ZM22.8047 22.8047C22.6797 22.9297 22.5101 22.9999 22.3333 22.9999C22.1566 22.9999 21.987 22.9297 21.862 22.8047L18.9113 19.8533C17.7642 20.8037 16.323 21.3268 14.8333 21.3333C13.5478 21.3333 12.2911 20.9521 11.2221 20.2379C10.1532 19.5237 9.32009 18.5085 8.82812 17.3208C8.33615 16.1331 8.20743 14.8261 8.45824 13.5652C8.70904 12.3044 9.3281 11.1462 10.2371 10.2371C11.1462 9.3281 12.3044 8.70903 13.5653 8.45823C14.8261 8.20743 16.1331 8.33615 17.3208 8.82812C18.5085 9.32009 19.5237 10.1532 20.2379 11.2221C20.9521 12.291 21.3333 13.5478 21.3333 14.8333C21.3267 16.3228 20.8037 17.7638 19.8533 18.9107L22.804 21.862C22.9291 21.9869 22.9994 22.1564 22.9995 22.3332C22.9997 22.51 22.9296 22.6796 22.8047 22.8047ZM20 14.8333C20.0001 16.193 19.4624 17.4974 18.5041 18.462C18.4965 18.4689 18.4865 18.4712 18.4792 18.4785C18.4719 18.4859 18.4695 18.496 18.4625 18.5036C17.6132 19.3411 16.5 19.8586 15.3122 19.9681C14.1244 20.0776 12.9354 19.7723 11.9472 19.1042C10.9591 18.436 10.2328 17.4463 9.89201 16.3032C9.55117 15.1601 9.61677 13.9342 10.0776 12.834C10.5385 11.7338 11.3662 10.8272 12.42 10.2683C13.4738 9.70944 14.6886 9.53279 15.858 9.7684C17.0273 10.004 18.0789 10.6373 18.834 11.5607C19.5892 12.4841 20.0012 13.6405 20 14.8333Z" fill="url(#paint0_linear_130_6012)"/>
<defs>
<linearGradient id="paint0_linear_130_6012" x1="1.00001" y1="15.6667" x2="30.3333" y2="15.6667" gradientUnits="userSpaceOnUse">
<stop stop-color="#93C5FD"/>
<stop offset="1" stop-color="#729DD6"/>
</linearGradient>
</defs>
</svg>
