<svg width="32" height="32" viewBox="0 0 32 32" fill="none" xmlns="http://www.w3.org/2000/svg">
<path d="M18.9024 7.16174L17.8717 15.7514C17.868 15.7822 17.8529 15.8105 17.8294 15.8309C17.806 15.8512 17.7758 15.8621 17.7447 15.8614C17.7137 15.8607 17.684 15.8484 17.6615 15.8271C17.639 15.8057 17.6252 15.7767 17.6229 15.7457C17.4479 13.2968 17.0726 8.04093 16.9032 5.66961C16.8798 5.34248 16.7333 5.03635 16.4933 4.81289C16.2532 4.58943 15.9374 4.46523 15.6094 4.4653H15.3725C15.0365 4.4653 14.7136 4.59568 14.4718 4.829C14.23 5.06232 14.0882 5.38037 14.0762 5.71618L13.7132 15.875C13.7122 15.9058 13.6997 15.9352 13.6783 15.9574C13.6568 15.9797 13.6279 15.9932 13.5971 15.9953C13.5663 15.9975 13.5358 15.9882 13.5114 15.9692C13.4871 15.9502 13.4706 15.9229 13.4652 15.8925L11.86 6.88318C11.8065 6.58333 11.6493 6.31185 11.4158 6.11629C11.1823 5.92074 10.8874 5.81356 10.5829 5.81355C10.4024 5.81351 10.2239 5.85114 10.0588 5.92403C9.89368 5.99693 9.7456 6.10347 9.62403 6.23686C9.50246 6.37025 9.41007 6.52755 9.35276 6.69869C9.29546 6.86982 9.2745 7.05104 9.29123 7.23074C9.6008 10.5538 10.35 18.6147 10.39 19.2328L6.77498 17.2609C6.44188 17.0792 6.05543 17.0206 5.68344 17.0953C5.31144 17.1701 4.97765 17.3735 4.74061 17.6697C4.4832 17.9915 4.35853 18.3995 4.39213 18.8102C4.42573 19.2209 4.61506 19.6033 4.92136 19.8789L8.00417 22.6527C8.18784 22.8179 8.36005 22.9954 8.51961 23.184L8.94405 23.6856C9.83588 24.7509 10.6024 25.9152 11.2286 27.1554C11.745 28.1576 12.5265 28.9989 13.4879 29.5877C14.4493 30.1765 15.5538 30.4903 16.6812 30.4949L16.9312 30.4991C17.7443 30.513 18.5519 30.363 19.3059 30.0582C20.0598 29.7534 20.7447 29.3 21.3197 28.725L21.3582 28.6866C22.2062 27.8408 22.7921 26.7684 23.0457 25.5979L25.9649 12.0961C26.0445 11.7281 25.9854 11.3437 25.799 11.0166C25.6125 10.6896 25.3119 10.4428 24.9547 10.3238C24.5796 10.1988 24.1706 10.224 23.8137 10.3943C23.4569 10.5645 23.1799 10.8665 23.041 11.2367L21.1179 16.3654C21.1074 16.3934 21.0872 16.4168 21.061 16.4312C21.0347 16.4456 21.0042 16.4501 20.9749 16.4439C20.9456 16.4377 20.9195 16.4212 20.9014 16.3974C20.8832 16.3736 20.8742 16.3441 20.876 16.3142C20.9892 14.485 21.4332 9.7128 21.6458 7.46593C21.6767 7.13922 21.5827 6.81294 21.3826 6.55282C21.1825 6.2927 20.8913 6.11807 20.5676 6.06411L20.4034 6.03674C20.2304 6.00797 20.0535 6.01455 19.8831 6.05608C19.7128 6.09762 19.5527 6.17324 19.4124 6.27838C19.2721 6.38353 19.1546 6.51601 19.067 6.66784C18.9793 6.81966 18.9233 6.98768 18.9024 7.16174Z" fill="#F6BB92"/>
<path d="M16.8214 27.5062C16.6888 27.5062 16.5617 27.4536 16.4679 27.3598C16.3741 27.266 16.3214 27.1389 16.3214 27.0062C16.3242 25.8788 16.0152 24.7726 15.4285 23.8099C14.8418 22.8471 14.0003 22.0654 12.9971 21.5511C12.8792 21.4903 12.7903 21.3852 12.7499 21.2589C12.7095 21.1326 12.7209 20.9954 12.7817 20.8775C12.8424 20.7596 12.9475 20.6707 13.0738 20.6303C13.2001 20.5899 13.3373 20.6014 13.4552 20.6621C14.622 21.2602 15.6006 22.1694 16.2829 23.289C16.9652 24.4086 17.3247 25.6951 17.3214 27.0062C17.3214 27.1389 17.2688 27.266 17.175 27.3598C17.0812 27.4536 16.954 27.5062 16.8214 27.5062Z" fill="#E0AA85"/>
<path d="M19.9636 20.6947C19.9496 20.6947 19.9356 20.6941 19.9215 20.6929L14.5286 20.2435C14.4627 20.2387 14.3984 20.2208 14.3394 20.191C14.2805 20.1612 14.228 20.12 14.1851 20.0697C14.1421 20.0195 14.1096 19.9613 14.0893 19.8984C14.069 19.8355 14.0614 19.7692 14.0669 19.7033C14.0724 19.6375 14.0908 19.5734 14.1213 19.5147C14.1517 19.4561 14.1934 19.404 14.2441 19.3616C14.2947 19.3191 14.3533 19.2872 14.4164 19.2675C14.4795 19.2478 14.5458 19.2409 14.6116 19.247L20.0045 19.6964C20.1332 19.707 20.2527 19.7669 20.3381 19.8636C20.4236 19.9603 20.4684 20.0862 20.4631 20.2152C20.4578 20.3441 20.4029 20.466 20.3098 20.5554C20.2167 20.6447 20.0926 20.6947 19.9636 20.6947Z" fill="#E0AA85"/>
<path d="M30.2493 9C30.1728 9.00012 30.0973 8.98267 30.0287 8.949C29.96 8.91533 29.9 8.86634 29.8533 8.80581C27.7811 6.11737 24.9711 4.09032 21.7663 2.97206C21.7038 2.95082 21.6461 2.91743 21.5966 2.87379C21.5471 2.83016 21.5067 2.77716 21.4778 2.71784C21.4488 2.65853 21.4319 2.59407 21.428 2.52819C21.4241 2.46231 21.4333 2.39631 21.455 2.334C21.4768 2.27168 21.5106 2.21429 21.5547 2.16512C21.5987 2.11595 21.652 2.07599 21.7115 2.04753C21.7711 2.01907 21.8357 2.00269 21.9016 1.99931C21.9675 1.99594 22.0334 2.00564 22.0956 2.02787C25.4834 3.20979 28.4539 5.3524 30.6445 8.19419C30.7017 8.26812 30.737 8.35659 30.7464 8.44956C30.7558 8.54253 30.739 8.63629 30.6978 8.72019C30.6567 8.80409 30.5928 8.87477 30.5136 8.92423C30.4343 8.97369 30.3427 8.99994 30.2493 9Z" fill="#FFC864"/>
<path d="M19.5006 2.34012C19.4679 2.34012 19.4353 2.33694 19.4033 2.33062C17.6422 1.98547 15.8388 1.91001 14.0549 2.10681C13.9246 2.11863 13.7948 2.07885 13.6934 1.99602C13.592 1.91319 13.5272 1.79391 13.5128 1.6638C13.4984 1.53369 13.5357 1.40313 13.6165 1.30015C13.6973 1.19718 13.8153 1.13001 13.9451 1.11306C15.83 0.905065 17.7357 0.984851 19.5967 1.34968C19.7186 1.37362 19.8272 1.44207 19.9014 1.54169C19.9755 1.64131 20.01 1.76497 19.998 1.8886C19.986 2.01222 19.9284 2.12696 19.8365 2.21046C19.7445 2.29396 19.6248 2.34025 19.5006 2.34031V2.34012Z" fill="#FFC864"/>
<path d="M1.75074 9C1.6573 8.99994 1.56573 8.9737 1.48644 8.92424C1.40716 8.87478 1.34331 8.80409 1.30216 8.72019C1.26101 8.63629 1.24419 8.54254 1.25362 8.44957C1.26305 8.35659 1.29834 8.26812 1.35549 8.19419C3.25809 5.73455 5.74701 3.7912 8.59462 2.54188C8.71612 2.48875 8.85375 2.48607 8.97723 2.53442C9.10071 2.58277 9.19993 2.67819 9.25306 2.79969C9.30618 2.92119 9.30887 3.05882 9.26052 3.1823C9.21217 3.30579 9.11675 3.405 8.99524 3.45813C6.30122 4.64013 3.94658 6.47875 2.14668 8.80582C2.09997 8.86635 2.03997 8.91534 1.97132 8.94901C1.90267 8.98268 1.82721 9.00013 1.75074 9Z" fill="#FFC864"/>
<path d="M2.98499 11.9835C2.89457 11.9835 2.80586 11.9589 2.72831 11.9124C2.65075 11.8659 2.58726 11.7992 2.54459 11.7195C2.50192 11.6398 2.48167 11.55 2.48598 11.4597C2.4903 11.3694 2.51903 11.2819 2.56911 11.2066C3.49779 9.80978 4.63923 8.5668 5.95205 7.52274C6.00337 7.48129 6.06238 7.45041 6.12568 7.43187C6.18899 7.41333 6.25534 7.4075 6.3209 7.41471C6.38647 7.42193 6.44996 7.44205 6.50772 7.47391C6.56548 7.50577 6.61636 7.54875 6.65744 7.60036C6.69852 7.65197 6.72897 7.71121 6.74706 7.77464C6.76514 7.83808 6.77049 7.90447 6.7628 7.96998C6.75512 8.0355 6.73454 8.09884 6.70226 8.15637C6.66999 8.2139 6.62665 8.26447 6.57474 8.30517C5.34342 9.28446 4.27284 10.4503 3.4018 11.7604C3.35615 11.8291 3.2942 11.8855 3.22146 11.9244C3.14873 11.9634 3.06749 11.9837 2.98499 11.9835Z" fill="#FFC864"/>
<path d="M28.4951 11.4467C28.4161 11.4468 28.3383 11.4282 28.2679 11.3924C28.1975 11.3566 28.1367 11.3047 28.0903 11.2408C27.0367 9.79054 25.7327 8.54004 24.2396 7.54817C24.1291 7.47473 24.0524 7.36043 24.0263 7.23042C24.0001 7.10041 24.0267 6.96534 24.1001 6.85492C24.1736 6.7445 24.2879 6.66777 24.4179 6.64162C24.5479 6.61548 24.683 6.64204 24.7934 6.71548C26.3853 7.77304 27.7757 9.10628 28.899 10.6525C28.9533 10.727 28.9858 10.8152 28.9931 10.9071C29.0004 10.999 28.9822 11.0912 28.9404 11.1733C28.8986 11.2555 28.8349 11.3246 28.7563 11.3728C28.6777 11.421 28.5873 11.4466 28.4951 11.4467Z" fill="#FFC864"/>
</svg>
